<svg width="162" height="159" viewBox="0 0 162 159" fill="none" xmlns="http://www.w3.org/2000/svg">
<ellipse cx="81" cy="80" rx="80" ry="79" fill="black"/>
<path fill-rule="evenodd" clip-rule="evenodd" d="M23.7247 23.285C16.2515 30.6195 10.4654 39.0425 6.36649 48.5539C2.12216 58.4029 0 68.7183 0 79.4999C0 90.2816 2.12216 100.597 6.36649 110.446C10.4653 119.957 16.2514 128.38 23.7247 135.715C31.1971 143.049 39.7789 148.728 49.47 152.751C59.5051 156.917 70.0151 159 80.9999 159C91.9848 159 102.495 156.917 112.53 152.751C122.221 148.728 130.803 143.049 138.276 135.715C145.748 128.38 151.534 119.957 155.633 110.446C159.878 100.597 162 90.2814 162 79.4999C162 68.7185 159.878 58.4032 155.633 48.5539C151.534 39.0425 145.748 30.6195 138.276 23.285C130.803 15.9505 122.221 10.2717 112.53 6.24859C102.495 2.08286 91.985 0 80.9999 0C70.0151 0 59.5051 2.08286 49.47 6.24859C39.7789 10.2717 31.1971 15.9505 23.7247 23.285ZM1.13269 79.4999C1.13269 68.8687 3.22502 58.6978 7.4097 48.9873C11.4513 39.6086 17.1565 31.3032 24.5253 24.0711C31.8938 16.8387 40.3559 11.2392 49.9115 7.27249C59.8053 3.16531 70.1681 1.11172 80.9999 1.11172C91.832 1.11172 102.195 3.16531 112.088 7.27249C121.643 11.239 130.106 16.8386 137.475 24.0711C144.843 31.3035 150.549 39.6088 154.59 48.9873C158.775 58.698 160.867 68.8689 160.867 79.4999C160.867 90.1312 158.775 100.302 154.59 110.013C150.549 119.391 144.843 127.697 137.475 134.929C130.106 142.161 121.644 147.761 112.088 151.728C102.195 155.835 91.8318 157.888 80.9999 157.888C70.1681 157.888 59.8053 155.835 49.9115 151.728C40.3564 147.761 31.8943 142.161 24.5253 134.929C17.1564 127.697 11.4512 119.391 7.4097 110.013C3.22502 100.302 1.13269 90.1312 1.13269 79.4999Z" fill="white"/>
<path fill-rule="evenodd" clip-rule="evenodd" d="M80.9999 2.69748C37.7829 2.69748 2.74838 37.0832 2.74838 79.4999C2.74838 121.917 37.7829 156.302 80.9999 156.302C124.217 156.302 159.251 121.917 159.251 79.4999C159.251 37.0832 124.217 2.69748 80.9999 2.69748ZM101.045 77.7453C101.924 77.116 102.703 76.3607 103.356 75.5051C107.563 70.0131 105.638 62.1616 104.236 56.4451C103.041 51.5781 101.796 46.55 97.2594 43.1017C97.5239 42.2683 97.64 41.3965 97.6027 40.5244C97.567 39.5413 97.4597 37.5327 96.2073 36.8655C94.6546 36.0507 91.9787 37.652 91.0843 39.6745C90.9544 39.9664 90.8537 40.2697 90.7836 40.5806C88.1435 40.1874 84.9165 40.1802 80.5661 40.1662C76.2156 40.1523 73.0959 40.1662 70.5054 40.5523C70.4134 39.8521 70.1343 39.1885 69.6971 38.6283C68.791 37.4135 67.0942 36.5585 65.6911 36.5213H65.5032C64.9529 36.5363 64.4577 36.6857 64.0873 36.9987C63.0356 37.8873 63.3531 39.787 63.5228 40.8009C63.5272 40.8288 63.5319 40.856 63.5363 40.8825C63.6753 41.6648 63.9384 42.4205 64.3161 43.1228L64.1873 43.2281C61.1749 45.7703 60.3594 49.1624 58.9782 54.7808C56.5095 64.8234 54.8784 71.4808 58.6348 76.2353C59.1949 76.942 59.8554 77.5662 60.5955 78.0895C59.3263 80.1231 58.3056 82.2964 57.5543 84.5646C56.4172 88.0724 55.9326 91.7524 56.1235 95.4289C56.1417 95.8648 56.4318 96.2448 56.8533 96.3841C64.5829 98.7719 72.6274 100.035 80.7306 100.134H81.7608C89.5739 100.138 97.3477 99.0548 104.851 96.9177C105.273 96.7992 105.579 96.4403 105.624 96.0116C106.285 89.5892 104.667 83.1399 101.045 77.7525L101.045 77.7453ZM60.3594 74.9431C57.2405 70.9995 58.7629 64.7568 61.0574 55.3509L61.075 55.2793C62.5058 49.5066 63.2214 46.8519 65.597 44.8574C68.6615 42.2693 72.6201 42.2729 80.4847 42.2801H80.5803C88.5084 42.2869 92.5297 42.2801 95.8212 44.717C99.8783 47.6947 100.987 52.1963 102.161 56.9716C103.542 62.59 105.259 69.6131 101.653 74.2759C99.22 77.4434 95.2129 78.4477 89.2167 78.7145C89.2167 75.793 89.1451 72.8504 88.9948 69.9501C88.6441 63.187 88.1292 61.2136 86.3831 59.9002C84.5228 58.4956 82.0472 58.4956 80.3869 58.4956C78.7269 58.4956 76.9096 58.4956 75.3212 59.5493C73.7327 60.6026 72.6806 62.4424 72.1369 68.7492C71.8665 72.0199 71.8308 75.3052 72.0296 78.5809C65.9334 78.279 62.4273 77.591 60.3594 74.9431ZM72.8025 55.2793C72.8025 55.357 72.7985 55.4344 72.7908 55.5121C72.7831 55.5892 72.7714 55.666 72.7558 55.7424C72.7405 55.8187 72.7212 55.8939 72.6982 55.9684C72.6752 56.0429 72.6485 56.116 72.6182 56.1876C72.588 56.2596 72.554 56.3298 72.5168 56.3982C72.4796 56.467 72.4387 56.5336 72.3949 56.598C72.3508 56.6625 72.3037 56.7252 72.2533 56.785C72.203 56.8452 72.1501 56.9028 72.0939 56.9576C72.038 57.0128 71.9793 57.0647 71.918 57.1141C71.857 57.1636 71.7935 57.2098 71.7275 57.2531C71.6618 57.2961 71.5939 57.3362 71.5239 57.3727C71.4541 57.4093 71.3825 57.4425 71.3093 57.4723C71.2363 57.502 71.1619 57.5282 71.086 57.5507C71.0101 57.5733 70.9334 57.5923 70.8557 57.6073C70.778 57.6224 70.6999 57.6338 70.6211 57.6417C70.5423 57.6492 70.4631 57.6528 70.3839 57.6528C70.3047 57.6528 70.2255 57.6492 70.1467 57.6417C70.0679 57.6338 69.9898 57.6224 69.9121 57.6073C69.8343 57.5923 69.7577 57.5733 69.6818 57.5507C69.6059 57.5282 69.5315 57.502 69.4585 57.4723C69.3851 57.4426 69.3136 57.4093 69.2439 57.3727C69.1738 57.3362 69.106 57.2961 69.0403 57.2531C68.9742 57.2098 68.9107 57.1636 68.8498 57.1141C68.7885 57.0647 68.7297 57.0128 68.6739 56.9576C68.6177 56.9028 68.5648 56.8452 68.5144 56.785C68.4641 56.7252 68.417 56.6625 68.3729 56.598C68.3291 56.5336 68.2882 56.467 68.251 56.3982C68.2138 56.3298 68.1798 56.2596 68.1495 56.1876C68.1192 56.116 68.0926 56.0429 68.0696 55.9684C68.0466 55.8939 68.0273 55.8187 68.012 55.7424C67.9963 55.6661 67.9849 55.5891 67.9769 55.5121C67.9693 55.4344 67.9652 55.357 67.9652 55.2793C67.9652 55.2016 67.9693 55.1239 67.9769 55.0465C67.985 54.9692 67.9963 54.8925 68.012 54.8162C68.0273 54.7399 68.0466 54.6647 68.0696 54.5902C68.0926 54.5157 68.1192 54.4427 68.1495 54.371C68.1798 54.2991 68.2138 54.2289 68.251 54.1604C68.2882 54.0917 68.3291 54.0251 68.3729 53.9606C68.417 53.8958 68.4641 53.8334 68.5144 53.7733C68.5648 53.7135 68.6177 53.6558 68.6739 53.601C68.7297 53.5458 68.7885 53.4936 68.8498 53.4445C68.9107 53.3951 68.9742 53.3489 69.0403 53.3055C69.106 53.2625 69.1738 53.2224 69.2439 53.1859C69.3137 53.1491 69.3853 53.1159 69.4585 53.0863C69.5315 53.0566 69.6059 53.0305 69.6818 53.0079C69.7577 52.9853 69.8343 52.9664 69.9121 52.9513C69.9898 52.9359 70.0679 52.9244 70.1467 52.9169C70.2255 52.9094 70.3047 52.9055 70.3839 52.9055C70.4631 52.9055 70.5423 52.9094 70.6211 52.9169C70.6999 52.9244 70.778 52.9359 70.8557 52.9513C70.9334 52.9664 71.0101 52.9853 71.086 53.0079C71.1619 53.0305 71.2363 53.0566 71.3093 53.0863C71.3825 53.1159 71.4541 53.1491 71.5239 53.1859C71.5939 53.2224 71.6618 53.2625 71.7275 53.3055C71.7935 53.3489 71.857 53.3951 71.918 53.4445C71.9793 53.4936 72.038 53.5458 72.0939 53.601C72.1501 53.6558 72.203 53.7135 72.2533 53.7733C72.3037 53.8334 72.3508 53.8958 72.3949 53.9606C72.4387 54.0251 72.4796 54.0917 72.5168 54.1604C72.554 54.2289 72.588 54.2991 72.6182 54.371C72.6485 54.4427 72.6752 54.5157 72.6982 54.5902C72.7212 54.6647 72.7405 54.7399 72.7558 54.8162C72.7715 54.8925 72.7828 54.9692 72.7908 55.0465C72.7985 55.1239 72.8025 55.2016 72.8025 55.2793ZM93.1019 55.2793C93.1019 55.357 93.0983 55.4344 93.0906 55.5121C93.0826 55.5891 93.0713 55.6661 93.0556 55.7424C93.0402 55.8187 93.0209 55.8939 92.9979 55.9684C92.9749 56.0429 92.9483 56.116 92.918 56.1876C92.8877 56.2596 92.8538 56.3298 92.8165 56.3982C92.7793 56.467 92.7384 56.5336 92.6947 56.598C92.6505 56.6625 92.6034 56.7252 92.5531 56.785C92.5027 56.8452 92.4498 56.9028 92.3936 56.9576C92.3378 57.0128 92.279 57.0647 92.2177 57.1141C92.1568 57.1636 92.0929 57.2098 92.0272 57.2531C91.9616 57.2961 91.8937 57.3362 91.8236 57.3727C91.7538 57.4093 91.6823 57.4425 91.609 57.4723C91.5361 57.502 91.4616 57.5282 91.3857 57.5507C91.3098 57.5733 91.2332 57.5923 91.1555 57.6073C91.0777 57.6224 90.9993 57.6338 90.9204 57.6417C90.842 57.6492 90.7628 57.6528 90.6836 57.6528C90.6044 57.6528 90.5253 57.6492 90.4464 57.6417C90.3676 57.6338 90.2895 57.6224 90.2118 57.6073C90.1341 57.5923 90.0574 57.5733 89.9815 57.5507C89.9056 57.5282 89.8312 57.502 89.7582 57.4723C89.6849 57.4426 89.6133 57.4093 89.5436 57.3727C89.4736 57.3362 89.4057 57.2961 89.34 57.2531C89.274 57.2098 89.2105 57.1636 89.1492 57.1141C89.0882 57.0647 89.0295 57.0128 88.9733 56.9576C88.9174 56.9028 88.8642 56.8452 88.8142 56.785C88.7638 56.7252 88.7167 56.6625 88.6726 56.598C88.6288 56.5336 88.5879 56.467 88.5507 56.3982C88.5131 56.3298 88.4795 56.2596 88.4493 56.1876C88.419 56.116 88.3923 56.0429 88.3693 55.9684C88.3464 55.8939 88.327 55.8187 88.3117 55.7424C88.296 55.6661 88.2847 55.5891 88.2767 55.5121C88.269 55.4344 88.265 55.357 88.265 55.2793C88.265 55.2016 88.269 55.1239 88.2767 55.0465C88.2844 54.9692 88.2961 54.8924 88.3117 54.8162C88.327 54.7399 88.3464 54.6647 88.3693 54.5902C88.3923 54.5157 88.419 54.4427 88.4493 54.371C88.4795 54.2991 88.5131 54.2289 88.5507 54.1604C88.5879 54.0917 88.6288 54.0251 88.6726 53.9606C88.7167 53.8958 88.7638 53.8334 88.8142 53.7733C88.8642 53.7135 88.9174 53.6558 88.9733 53.601C89.0295 53.5458 89.0882 53.4936 89.1492 53.4445C89.2105 53.3951 89.274 53.3489 89.34 53.3055C89.4057 53.2625 89.4736 53.2224 89.5436 53.1859C89.6134 53.1491 89.685 53.1159 89.7582 53.0863C89.8312 53.0566 89.9056 53.0305 89.9815 53.0079C90.0574 52.9853 90.1341 52.9664 90.2118 52.9513C90.2895 52.9359 90.3676 52.9244 90.4464 52.9169C90.5253 52.9094 90.6044 52.9055 90.6836 52.9055C90.7628 52.9055 90.842 52.9094 90.9204 52.9169C90.9993 52.9244 91.0777 52.9359 91.1555 52.9513C91.2332 52.9664 91.3098 52.9853 91.3857 53.0079C91.4616 53.0305 91.5361 53.0566 91.609 53.0863C91.6823 53.1159 91.7538 53.1491 91.8236 53.1859C91.8937 53.2224 91.9616 53.2625 92.0272 53.3055C92.0929 53.3489 92.1568 53.3951 92.2177 53.4445C92.279 53.4936 92.3378 53.5458 92.3936 53.601C92.4498 53.6558 92.5027 53.7135 92.5531 53.7733C92.6034 53.8334 92.6505 53.8958 92.6947 53.9606C92.7384 54.0251 92.7793 54.0917 92.8165 54.1604C92.8538 54.229 92.8876 54.2992 92.918 54.371C92.9483 54.4427 92.9749 54.5157 92.9979 54.5902C93.0209 54.6647 93.0402 54.7399 93.0556 54.8162C93.0713 54.8925 93.0826 54.9692 93.0906 55.0465C93.0982 55.1239 93.1019 55.2016 93.1019 55.2793ZM83.385 62.6673C83.1504 62.2505 82.711 61.984 82.226 61.965C81.4174 61.965 80.6518 62.7866 80.2369 63.6576C79.8289 62.7866 79.056 61.951 78.2547 61.965C77.7697 61.9897 77.3307 62.254 77.0884 62.6673C76.6089 63.5731 77.4318 65.0408 78.6127 65.4764C78.7612 65.5329 78.9144 65.5777 79.0706 65.6099C79.0706 67.7166 79.0706 69.8799 79.1206 72.0077C79.1706 74.1355 79.2779 76.4742 79.414 78.6862H78.6554L74.1691 78.5952C73.9633 75.3664 73.9947 72.1277 74.2622 68.9035C74.7559 63.1659 75.6288 61.8808 76.5016 61.2838C77.5464 60.5814 78.9272 60.5815 80.3799 60.5815C81.8323 60.5815 83.7857 60.5814 85.0596 61.5295C86.0397 62.2669 86.4904 63.6365 86.8411 70.0131C86.9914 72.8995 87.0556 75.8281 87.0556 78.7356H81.5677C81.4247 76.4882 81.3243 74.2128 81.267 71.9654C81.2097 69.8587 81.2028 67.7517 81.217 65.645C81.4396 65.6153 81.6579 65.5612 81.8681 65.4835C83.0489 65.0408 83.8645 63.5731 83.385 62.6673ZM103.549 95.0919C96.134 97.1323 88.4595 98.1208 80.7591 98.0273C73.1156 97.9392 65.524 96.7827 58.2126 94.5929C58.079 89.1357 59.5712 83.7587 62.5058 79.1217C65.9903 80.5894 70.9991 80.674 78.6554 80.8004C80.8022 80.8355 82.8555 80.8634 84.7589 80.8634C85.9398 80.8634 87.063 80.8634 88.1362 80.8212H88.2435C92.7301 80.6808 96.3792 80.1962 99.2343 78.8338C102.475 83.6309 103.994 89.3521 103.549 95.0919ZM69.6614 86.4818C68.7998 86.2626 67.9871 85.8887 67.2643 85.379C66.0622 88.0126 66.4198 90.8921 67.7437 92.1349C68.4462 92.8473 69.5304 93.0468 70.4481 92.6338C71.9224 91.9315 72.8595 89.4172 72.273 86.6713C71.398 86.7651 70.5127 86.7006 69.6614 86.4818ZM91.027 86.9732C90.1727 87.1906 89.2853 87.2525 88.408 87.1558C87.8286 89.909 88.7587 92.4089 90.2399 93.1252C91.1565 93.531 92.2338 93.3319 92.9377 92.6267C94.2612 91.3767 94.6261 88.4971 93.4168 85.8636C92.6965 86.3747 91.8864 86.7511 91.027 86.9732ZM98.1757 116.179C98.1757 115.716 98.1246 115.349 98.022 115.079C97.9198 114.809 97.7509 114.604 97.5148 114.465C97.2791 114.326 96.9692 114.237 96.5857 114.199C96.2022 114.16 95.7274 114.141 95.1611 114.141H92.5122C92.009 114.141 91.5853 114.155 91.2408 114.184C90.8967 114.213 90.6128 114.272 90.3884 114.361C90.1644 114.45 89.9914 114.577 89.8695 114.743C89.7476 114.909 89.6591 115.129 89.6039 115.403C89.5488 115.677 89.5174 116.014 89.5097 116.414C89.5017 116.813 89.4977 117.291 89.4977 117.847C89.4977 118.402 89.5028 118.88 89.5126 119.28C89.5225 119.679 89.555 120.016 89.6101 120.29C89.6648 120.564 89.7524 120.784 89.8724 120.95C89.9925 121.116 90.1644 121.243 90.3884 121.332C90.6128 121.421 90.8967 121.48 91.2408 121.509C91.5853 121.538 92.009 121.552 92.5122 121.552H95.1611C95.6016 121.552 95.9811 121.541 96.2996 121.517C96.6182 121.494 96.8897 121.452 97.1137 121.39C97.3378 121.328 97.5188 121.243 97.6564 121.135C97.794 121.027 97.9012 120.891 97.9779 120.727C98.0545 120.563 98.1067 120.366 98.1344 120.137C98.1618 119.907 98.1756 119.638 98.1756 119.329H99.3083C99.3083 119.699 99.2846 120.034 99.2376 120.333C99.1901 120.633 99.1065 120.899 98.9869 121.132C98.8668 121.366 98.7066 121.568 98.5059 121.738C98.3052 121.907 98.0516 122.047 97.745 122.157C97.4382 122.267 97.0725 122.348 96.6478 122.4C96.223 122.452 95.7274 122.479 95.1611 122.479H92.5122C91.82 122.479 91.2372 122.437 90.7632 122.354C90.2891 122.271 89.8991 122.145 89.5922 121.978C89.2853 121.81 89.0485 121.599 88.8813 121.344C88.7142 121.089 88.5923 120.79 88.5157 120.446C88.439 120.103 88.3945 119.715 88.3829 119.282C88.3712 118.85 88.365 118.372 88.365 117.847C88.365 117.321 88.3712 116.843 88.3829 116.411C88.3945 115.978 88.439 115.591 88.5157 115.247C88.5923 114.903 88.7142 114.604 88.8813 114.35C89.0485 114.095 89.2853 113.883 89.5922 113.716C89.8991 113.548 90.2891 113.422 90.7632 113.339C91.2372 113.256 91.82 113.215 92.5122 113.215H95.1611C95.7274 113.215 96.223 113.241 96.6478 113.293C97.0725 113.345 97.4382 113.424 97.745 113.53C98.0516 113.636 98.3052 113.77 98.5059 113.933C98.7066 114.095 98.8668 114.286 98.9869 114.506C99.1065 114.726 99.1901 114.975 99.2376 115.253C99.2846 115.531 99.3083 115.839 99.3083 116.179H98.1757ZM37.5844 122.293L38.7171 120.255H45.8906L47.0233 122.293H48.3446L43.0588 113.4H41.5488L36.2631 122.293H37.5844ZM56.6624 113.4H49.855V122.293H50.9877V118.773H55.8899C56.5822 118.773 57.1649 118.746 57.6389 118.692C58.113 118.638 58.5041 118.559 58.8129 118.454C59.1216 118.35 59.3595 118.22 59.5266 118.064C59.6938 117.907 59.8156 117.726 59.8923 117.52C59.9693 117.313 60.0145 117.082 60.028 116.828C60.0419 116.573 60.0488 116.295 60.0488 115.994C60.0488 115.704 60.0437 115.44 60.0339 115.2C60.024 114.961 59.9879 114.745 59.9247 114.552C59.862 114.359 59.7627 114.191 59.627 114.048C59.4912 113.905 59.2975 113.786 59.046 113.689C58.7943 113.593 58.4746 113.52 58.0874 113.472C57.6999 113.424 57.2251 113.4 56.6624 113.4ZM61.5588 113.4H68.3666C68.929 113.4 69.4041 113.424 69.7913 113.472C70.1788 113.52 70.4985 113.593 70.7499 113.689C71.0017 113.786 71.1955 113.905 71.3312 114.048C71.4666 114.191 71.5662 114.359 71.629 114.552C71.6917 114.745 71.7282 114.961 71.7381 115.2C71.7479 115.44 71.753 115.704 71.753 115.994C71.753 116.295 71.7461 116.573 71.7322 116.828C71.7184 117.082 71.6731 117.313 71.5965 117.52C71.5199 117.726 71.398 117.907 71.2308 118.064C71.0637 118.22 70.8258 118.35 70.5171 118.454C70.2084 118.559 69.8168 118.638 69.3432 118.692C68.8691 118.746 68.286 118.773 67.5938 118.773H62.6915V122.293H61.5588V113.4ZM76.4721 122.293L77.6048 120.255H84.7782L85.9109 122.293H87.2326L81.9469 113.4H80.4365L75.1507 122.293H76.4721ZM111.768 113.4H110.635V117.291H102.329V113.4H101.196V122.293H102.329V118.217H110.635V122.293H111.768V113.4ZM114.033 122.293V113.4H123.094V114.326H115.165V117.291H122.716V118.217H115.165V121.367H123.094V122.293H114.033ZM125.737 113.4H124.604V122.293H125.737V113.4ZM42.3038 114.141L45.3242 119.329H39.2835L42.3038 114.141ZM81.1915 114.141L84.2119 119.329H78.1711L81.1915 114.141ZM55.8899 117.847H50.9877V114.326H55.8899C56.3931 114.326 56.8168 114.332 57.1609 114.344C57.5054 114.355 57.7893 114.381 58.0133 114.422C58.2378 114.462 58.4107 114.519 58.5326 114.593C58.6545 114.666 58.7439 114.764 58.8012 114.888C58.8581 115.011 58.8917 115.164 58.9015 115.345C58.911 115.527 58.9161 115.743 58.9161 115.994C58.9161 116.264 58.911 116.497 58.9015 116.691C58.8917 116.886 58.8581 117.053 58.8012 117.192C58.7439 117.331 58.6545 117.443 58.5326 117.528C58.4107 117.613 58.2378 117.679 58.0133 117.725C57.7893 117.771 57.5054 117.803 57.1609 117.82C56.8168 117.838 56.3931 117.847 55.8899 117.847ZM62.6915 117.847H67.5938C68.0973 117.847 68.521 117.838 68.8651 117.82C69.2092 117.803 69.4935 117.771 69.7176 117.725C69.942 117.679 70.1149 117.613 70.2368 117.528C70.3587 117.443 70.4481 117.331 70.505 117.192C70.5623 117.053 70.5955 116.886 70.6054 116.691C70.6152 116.497 70.6204 116.264 70.6204 115.994C70.6204 115.743 70.6152 115.527 70.6054 115.345C70.5955 115.164 70.5623 115.011 70.505 114.888C70.4481 114.764 70.3587 114.666 70.2368 114.593C70.1149 114.519 69.942 114.462 69.7176 114.422C69.4935 114.381 69.2092 114.355 68.8651 114.344C68.521 114.332 68.0973 114.326 67.5938 114.326H62.6915V117.847Z" fill="white"/>
</svg>
