<svg width="160" height="158" viewBox="0 0 160 158" fill="none" xmlns="http://www.w3.org/2000/svg">
<path d="M159 79C159 122.066 123.642 157 80 157C36.3576 157 1 122.066 1 79C1 35.9336 36.3576 1 80 1C123.642 1 159 35.9336 159 79Z" fill="#0F0707" stroke="#F0F0F0" stroke-width="2"/>
<mask id="path-2-inside-1_5_4" fill="white">
<path fill-rule="evenodd" clip-rule="evenodd" d="M110.471 93.8046C111.831 92.8153 113.035 91.6282 114.042 90.2828C120.543 81.6496 117.569 69.3069 115.402 60.3204C113.556 52.6697 111.632 44.7651 104.623 39.3444C105.031 38.0344 105.211 36.6637 105.153 35.2928C105.098 33.7472 104.932 30.5898 102.998 29.541C100.598 28.2603 96.4636 30.7774 95.0816 33.9569C94.881 34.4155 94.7255 34.8925 94.6172 35.3811C90.5376 34.7629 85.5514 34.7518 78.8294 34.7297C72.1074 34.7077 67.2871 34.7297 63.2848 35.3369C63.1423 34.2364 62.7114 33.1929 62.0355 32.312C60.6359 30.4026 58.0137 29.0585 55.846 29H55.5553C54.7054 29.0236 53.9403 29.2585 53.3677 29.7507C51.743 31.1475 52.2335 34.1337 52.4954 35.7275C52.5026 35.7714 52.5095 35.8141 52.5164 35.8558C52.7312 37.0854 53.1379 38.2738 53.7215 39.3776L53.5225 39.5432C48.868 43.5396 47.6076 48.8719 45.4738 57.7039C41.6595 73.491 39.1388 83.9569 44.9431 91.431C45.8088 92.5415 46.8289 93.523 47.9724 94.3455C46.0115 97.5426 44.4344 100.959 43.2737 104.524C41.5168 110.039 40.7678 115.824 41.0625 121.603C41.0907 122.289 41.5391 122.886 42.1902 123.105C54.1336 126.859 66.5636 128.845 79.0837 129H80.6757C92.7477 129.006 104.759 127.303 116.353 123.944C117.005 123.758 117.478 123.193 117.547 122.52C118.568 112.423 116.069 102.285 110.471 93.8156L110.471 93.8046ZM47.6076 89.3996C42.7884 83.1998 45.1412 73.3863 48.6862 58.6002L48.7132 58.4877C50.9244 49.4129 52.0299 45.2398 55.7005 42.1044C60.4354 38.0361 66.5522 38.0416 78.704 38.0526L78.8515 38.0528C91.1015 38.0638 97.3149 38.0528 102.401 41.8836C108.669 46.5646 110.383 53.6412 112.196 61.1484C114.33 69.9803 116.983 81.0203 111.411 88.3508C107.652 93.3299 101.461 94.9086 92.196 95.3281C92.196 90.7355 92.0854 86.1097 91.8533 81.5502C91.3115 70.9187 90.5155 67.8165 87.8179 65.752C84.9433 63.544 81.118 63.544 78.553 63.544C75.9881 63.544 73.1799 63.544 70.7255 65.2C68.271 66.856 66.6458 69.7485 65.8056 79.6624C65.3878 84.8041 65.3324 89.9689 65.6397 95.1183C56.2201 94.6436 50.8027 93.5617 47.6076 89.3996ZM66.8338 58.4877C66.8338 58.6099 66.8278 58.7318 66.8158 58.8535C66.8037 58.9751 66.7858 59.0958 66.762 59.2157C66.7381 59.3356 66.7084 59.454 66.6729 59.571C66.6374 59.6879 66.5962 59.8029 66.5493 59.9158C66.5025 60.0287 66.4503 60.139 66.3925 60.2467C66.3348 60.3546 66.272 60.4593 66.204 60.5608C66.136 60.6625 66.0632 60.7605 65.9856 60.8549C65.9079 60.9494 65.8258 61.0399 65.7393 61.1263C65.6527 61.2127 65.5621 61.2947 65.4675 61.3723C65.3729 61.4498 65.2748 61.5225 65.173 61.5904C65.0713 61.6583 64.9664 61.721 64.8584 61.7786C64.7505 61.8363 64.64 61.8884 64.527 61.9352C64.4139 61.982 64.2988 62.0231 64.1817 62.0586C64.0646 62.0941 63.946 62.1237 63.8259 62.1476C63.7059 62.1714 63.5849 62.1892 63.4632 62.2012C63.3413 62.2132 63.2193 62.2192 63.0969 62.2192C62.9745 62.2192 62.8525 62.2132 62.7306 62.2012C62.6089 62.1892 62.4879 62.1714 62.3679 62.1476C62.2478 62.1237 62.1292 62.0941 62.0121 62.0586C61.895 62.0231 61.7799 61.982 61.6668 61.9352C61.5538 61.8884 61.4433 61.8363 61.3354 61.7786C61.2274 61.721 61.1225 61.6583 61.0208 61.5904C60.919 61.5225 60.8209 61.4498 60.7263 61.3723C60.6317 61.2947 60.5411 61.2127 60.4545 61.1263C60.368 61.0399 60.2859 60.9494 60.2082 60.8549C60.1306 60.7605 60.0578 60.6625 59.9898 60.5608C59.9218 60.4593 59.859 60.3546 59.8013 60.2467C59.7435 60.139 59.6913 60.0287 59.6445 59.9158C59.5976 59.8029 59.5564 59.6879 59.5209 59.571C59.4854 59.454 59.4556 59.3356 59.4318 59.2157C59.408 59.0958 59.3901 58.9751 59.378 58.8535C59.366 58.7318 59.36 58.6099 59.36 58.4877C59.36 58.3656 59.366 58.2436 59.378 58.122C59.39 58.0004 59.408 57.8797 59.4318 57.7598C59.4556 57.6399 59.4854 57.5215 59.5209 57.4045C59.5564 57.2876 59.5976 57.1726 59.6445 57.0597C59.6913 56.9468 59.7435 56.8365 59.8013 56.7287C59.859 56.6209 59.9218 56.5162 59.9898 56.4147C60.0578 56.313 60.1306 56.2149 60.2082 56.1204C60.2859 56.026 60.368 55.9356 60.4545 55.8492C60.5411 55.7628 60.6317 55.6808 60.7263 55.6032C60.8209 55.5257 60.919 55.453 61.0208 55.3851C61.1225 55.3172 61.2274 55.2545 61.3354 55.1968C61.4433 55.1392 61.5538 55.087 61.6668 55.0403C61.7799 54.9935 61.895 54.9523 62.0121 54.9169C62.1292 54.8814 62.2478 54.8517 62.3679 54.8279C62.4879 54.804 62.6089 54.7862 62.7306 54.7742C62.8525 54.7622 62.9745 54.7562 63.0969 54.7562C63.2193 54.7562 63.3413 54.7622 63.4632 54.7742C63.5849 54.7862 63.7059 54.804 63.8259 54.8279C63.946 54.8517 64.0646 54.8814 64.1817 54.9169C64.2988 54.9523 64.4139 54.9935 64.527 55.0403C64.64 55.087 64.7505 55.1392 64.8584 55.1968C64.9664 55.2545 65.0713 55.3172 65.173 55.3851C65.2748 55.453 65.3729 55.5257 65.4675 55.6032C65.5621 55.6808 65.6527 55.7628 65.7393 55.8492C65.8258 55.9356 65.9079 56.026 65.9856 56.1204C66.0632 56.2149 66.136 56.313 66.204 56.4147C66.272 56.5162 66.3348 56.6209 66.3925 56.7287C66.4503 56.8365 66.5025 56.9468 66.5493 57.0597C66.5962 57.1726 66.6374 57.2876 66.6729 57.4045C66.7084 57.5215 66.7381 57.6399 66.762 57.7598C66.7858 57.8797 66.8037 58.0004 66.8158 58.122C66.8278 58.2436 66.8338 58.3656 66.8338 58.4877ZM98.1993 58.4877C98.1993 58.6099 98.1933 58.7318 98.1813 58.8535C98.1694 58.9751 98.1515 59.0958 98.1276 59.2157C98.1037 59.3356 98.074 59.454 98.0385 59.571C98.0029 59.6879 97.9617 59.8029 97.9149 59.9158C97.8681 60.0287 97.8158 60.139 97.7581 60.2467C97.7004 60.3546 97.6375 60.4593 97.5696 60.5608C97.5016 60.6625 97.4287 60.7605 97.3511 60.8549C97.2734 60.9494 97.1913 61.0399 97.1048 61.1263C97.0183 61.2127 96.9277 61.2947 96.8332 61.3723C96.7385 61.4498 96.6403 61.5225 96.5385 61.5904C96.4368 61.6583 96.332 61.721 96.224 61.7786C96.1161 61.8363 96.0056 61.8884 95.8925 61.9352C95.7795 61.982 95.6644 62.0231 95.5472 62.0586C95.4301 62.0941 95.3115 62.1237 95.1915 62.1476C95.0714 62.1714 94.9505 62.1892 94.8287 62.2012C94.707 62.2132 94.5849 62.2192 94.4624 62.2192C94.3401 62.2192 94.218 62.2132 94.0962 62.2012C93.9744 62.1892 93.8535 62.1714 93.7334 62.1476C93.6134 62.1237 93.4948 62.0941 93.3776 62.0586C93.2605 62.0231 93.1454 61.982 93.0324 61.9352C92.9193 61.8884 92.8088 61.8363 92.7009 61.7786C92.5929 61.721 92.4881 61.6583 92.3864 61.5904C92.2846 61.5225 92.1864 61.4498 92.0918 61.3723C91.9972 61.2947 91.9066 61.2127 91.8201 61.1263C91.7336 61.0399 91.6515 60.9494 91.5738 60.8549C91.4962 60.7605 91.4233 60.6625 91.3553 60.5608C91.2873 60.4593 91.2245 60.3546 91.1668 60.2467C91.1091 60.139 91.0568 60.0287 91.01 59.9158C90.9632 59.8029 90.922 59.6879 90.8864 59.571C90.8509 59.454 90.8212 59.3356 90.7973 59.2157C90.7735 59.0958 90.7556 58.9751 90.7436 58.8535C90.7316 58.7318 90.7256 58.6099 90.7256 58.4877C90.7256 58.3656 90.7316 58.2436 90.7436 58.122C90.7556 58.0004 90.7735 57.8797 90.7973 57.7598C90.8212 57.6399 90.8509 57.5215 90.8864 57.4045C90.922 57.2876 90.9632 57.1726 91.01 57.0597C91.0568 56.9468 91.1091 56.8365 91.1668 56.7287C91.2245 56.6209 91.2873 56.5162 91.3553 56.4147C91.4233 56.313 91.4962 56.2149 91.5738 56.1204C91.6515 56.026 91.7336 55.9356 91.8201 55.8492C91.9066 55.7628 91.9972 55.6808 92.0918 55.6032C92.1864 55.5257 92.2846 55.453 92.3864 55.3851C92.4881 55.3172 92.5929 55.2545 92.7009 55.1968C92.8088 55.1392 92.9193 55.087 93.0324 55.0403C93.1454 54.9935 93.2605 54.9523 93.3776 54.9169C93.4948 54.8814 93.6134 54.8517 93.7334 54.8279C93.8535 54.804 93.9744 54.7862 94.0962 54.7742C94.218 54.7622 94.3401 54.7562 94.4624 54.7562C94.5849 54.7562 94.707 54.7622 94.8287 54.7742C94.9505 54.7862 95.0714 54.804 95.1915 54.8279C95.3115 54.8517 95.4301 54.8814 95.5472 54.9169C95.6644 54.9523 95.7795 54.9935 95.8925 55.0403C96.0056 55.087 96.1161 55.1392 96.224 55.1968C96.332 55.2545 96.4368 55.3172 96.5385 55.3851C96.6403 55.453 96.7385 55.5257 96.8332 55.6032C96.9277 55.6808 97.0183 55.7628 97.1048 55.8492C97.1913 55.9356 97.2734 56.026 97.3511 56.1204C97.4287 56.2149 97.5016 56.313 97.5696 56.4147C97.6375 56.5162 97.7004 56.6209 97.7581 56.7287C97.8158 56.8365 97.8681 56.9468 97.9149 57.0597C97.9617 57.1726 98.0029 57.2876 98.0385 57.4045C98.074 57.5215 98.1037 57.6399 98.1276 57.7598C98.1515 57.8797 98.1694 58.0004 98.1813 58.122C98.1933 58.2436 98.1993 58.3656 98.1993 58.4877ZM83.1854 70.1018C82.8227 69.4465 82.1436 69.0278 81.3944 68.9978C80.1451 68.9978 78.9621 70.2895 78.3208 71.6584C77.6907 70.2895 76.4966 68.9757 75.2584 68.9978C74.509 69.0367 73.8305 69.4523 73.4563 70.1018C72.7155 71.5259 73.9869 73.8333 75.8112 74.5178C76.0409 74.6069 76.2775 74.677 76.5187 74.7275C76.5187 78.0395 76.5187 81.4398 76.5961 84.7849C76.6735 88.13 76.8394 91.8063 77.0494 95.2839H75.8775L68.9455 95.1404C68.6278 90.0651 68.6759 84.9736 69.0892 79.9053C69.852 70.8856 71.2009 68.8653 72.5497 67.9269C74.1638 66.8229 76.2976 66.8229 78.542 66.8229C80.7863 66.8229 83.8046 66.8229 85.7725 68.3133C87.2872 69.4725 87.9837 71.6253 88.5254 81.6496C88.7576 86.187 88.8571 90.7907 88.8571 95.3612H80.3772C80.1561 91.8284 80.0013 88.2515 79.9129 84.7187C79.8245 81.4067 79.8134 78.0947 79.8355 74.7827C80.1793 74.7363 80.5169 74.651 80.8416 74.5288C82.6658 73.8333 83.9262 71.5259 83.1854 70.1018ZM114.341 121.073C102.884 124.281 91.0259 125.835 79.1279 125.688C67.3177 125.55 55.5875 123.732 44.2908 120.289C44.0842 111.711 46.3896 103.258 50.9244 95.9684C56.3086 98.2758 64.0477 98.4082 75.8775 98.607C79.1943 98.6622 82.3673 98.7063 85.3082 98.7063C87.1324 98.7063 88.8682 98.7063 90.5265 98.6401H90.6924C97.6244 98.4193 103.263 97.6575 107.674 95.5158C112.682 103.057 115.028 112.051 114.341 121.073ZM61.9802 107.538C60.6491 107.194 59.3934 106.606 58.2765 105.805C56.4191 109.945 56.9719 114.471 59.0173 116.425C60.1031 117.545 61.7778 117.859 63.1964 117.209C65.4739 116.105 66.9222 112.153 66.0156 107.836C64.6635 107.984 63.2959 107.883 61.9802 107.538ZM94.9931 108.311C93.6732 108.653 92.3017 108.75 90.9467 108.598C90.0511 112.926 91.4884 116.856 93.777 117.982C95.1935 118.62 96.8579 118.307 97.945 117.198C99.9904 115.233 100.554 110.707 98.6858 106.567C97.5729 107.37 96.321 107.962 94.9931 108.311Z"/>
</mask>
<path fill-rule="evenodd" clip-rule="evenodd" d="M110.471 93.8046C111.831 92.8153 113.035 91.6282 114.042 90.2828C120.543 81.6496 117.569 69.3069 115.402 60.3204C113.556 52.6697 111.632 44.7651 104.623 39.3444C105.031 38.0344 105.211 36.6637 105.153 35.2928C105.098 33.7472 104.932 30.5898 102.998 29.541C100.598 28.2603 96.4636 30.7774 95.0816 33.9569C94.881 34.4155 94.7255 34.8925 94.6172 35.3811C90.5376 34.7629 85.5514 34.7518 78.8294 34.7297C72.1074 34.7077 67.2871 34.7297 63.2848 35.3369C63.1423 34.2364 62.7114 33.1929 62.0355 32.312C60.6359 30.4026 58.0137 29.0585 55.846 29H55.5553C54.7054 29.0236 53.9403 29.2585 53.3677 29.7507C51.743 31.1475 52.2335 34.1337 52.4954 35.7275C52.5026 35.7714 52.5095 35.8141 52.5164 35.8558C52.7312 37.0854 53.1379 38.2738 53.7215 39.3776L53.5225 39.5432C48.868 43.5396 47.6076 48.8719 45.4738 57.7039C41.6595 73.491 39.1388 83.9569 44.9431 91.431C45.8088 92.5415 46.8289 93.523 47.9724 94.3455C46.0115 97.5426 44.4344 100.959 43.2737 104.524C41.5168 110.039 40.7678 115.824 41.0625 121.603C41.0907 122.289 41.5391 122.886 42.1902 123.105C54.1336 126.859 66.5636 128.845 79.0837 129H80.6757C92.7477 129.006 104.759 127.303 116.353 123.944C117.005 123.758 117.478 123.193 117.547 122.52C118.568 112.423 116.069 102.285 110.471 93.8156L110.471 93.8046ZM47.6076 89.3996C42.7884 83.1998 45.1412 73.3863 48.6862 58.6002L48.7132 58.4877C50.9244 49.4129 52.0299 45.2398 55.7005 42.1044C60.4354 38.0361 66.5522 38.0416 78.704 38.0526L78.8515 38.0528C91.1015 38.0638 97.3149 38.0528 102.401 41.8836C108.669 46.5646 110.383 53.6412 112.196 61.1484C114.33 69.9803 116.983 81.0203 111.411 88.3508C107.652 93.3299 101.461 94.9086 92.196 95.3281C92.196 90.7355 92.0854 86.1097 91.8533 81.5502C91.3115 70.9187 90.5155 67.8165 87.8179 65.752C84.9433 63.544 81.118 63.544 78.553 63.544C75.9881 63.544 73.1799 63.544 70.7255 65.2C68.271 66.856 66.6458 69.7485 65.8056 79.6624C65.3878 84.8041 65.3324 89.9689 65.6397 95.1183C56.2201 94.6436 50.8027 93.5617 47.6076 89.3996ZM66.8338 58.4877C66.8338 58.6099 66.8278 58.7318 66.8158 58.8535C66.8037 58.9751 66.7858 59.0958 66.762 59.2157C66.7381 59.3356 66.7084 59.454 66.6729 59.571C66.6374 59.6879 66.5962 59.8029 66.5493 59.9158C66.5025 60.0287 66.4503 60.139 66.3925 60.2467C66.3348 60.3546 66.272 60.4593 66.204 60.5608C66.136 60.6625 66.0632 60.7605 65.9856 60.8549C65.9079 60.9494 65.8258 61.0399 65.7393 61.1263C65.6527 61.2127 65.5621 61.2947 65.4675 61.3723C65.3729 61.4498 65.2748 61.5225 65.173 61.5904C65.0713 61.6583 64.9664 61.721 64.8584 61.7786C64.7505 61.8363 64.64 61.8884 64.527 61.9352C64.4139 61.982 64.2988 62.0231 64.1817 62.0586C64.0646 62.0941 63.946 62.1237 63.8259 62.1476C63.7059 62.1714 63.5849 62.1892 63.4632 62.2012C63.3413 62.2132 63.2193 62.2192 63.0969 62.2192C62.9745 62.2192 62.8525 62.2132 62.7306 62.2012C62.6089 62.1892 62.4879 62.1714 62.3679 62.1476C62.2478 62.1237 62.1292 62.0941 62.0121 62.0586C61.895 62.0231 61.7799 61.982 61.6668 61.9352C61.5538 61.8884 61.4433 61.8363 61.3354 61.7786C61.2274 61.721 61.1225 61.6583 61.0208 61.5904C60.919 61.5225 60.8209 61.4498 60.7263 61.3723C60.6317 61.2947 60.5411 61.2127 60.4545 61.1263C60.368 61.0399 60.2859 60.9494 60.2082 60.8549C60.1306 60.7605 60.0578 60.6625 59.9898 60.5608C59.9218 60.4593 59.859 60.3546 59.8013 60.2467C59.7435 60.139 59.6913 60.0287 59.6445 59.9158C59.5976 59.8029 59.5564 59.6879 59.5209 59.571C59.4854 59.454 59.4556 59.3356 59.4318 59.2157C59.408 59.0958 59.3901 58.9751 59.378 58.8535C59.366 58.7318 59.36 58.6099 59.36 58.4877C59.36 58.3656 59.366 58.2436 59.378 58.122C59.39 58.0004 59.408 57.8797 59.4318 57.7598C59.4556 57.6399 59.4854 57.5215 59.5209 57.4045C59.5564 57.2876 59.5976 57.1726 59.6445 57.0597C59.6913 56.9468 59.7435 56.8365 59.8013 56.7287C59.859 56.6209 59.9218 56.5162 59.9898 56.4147C60.0578 56.313 60.1306 56.2149 60.2082 56.1204C60.2859 56.026 60.368 55.9356 60.4545 55.8492C60.5411 55.7628 60.6317 55.6808 60.7263 55.6032C60.8209 55.5257 60.919 55.453 61.0208 55.3851C61.1225 55.3172 61.2274 55.2545 61.3354 55.1968C61.4433 55.1392 61.5538 55.087 61.6668 55.0403C61.7799 54.9935 61.895 54.9523 62.0121 54.9169C62.1292 54.8814 62.2478 54.8517 62.3679 54.8279C62.4879 54.804 62.6089 54.7862 62.7306 54.7742C62.8525 54.7622 62.9745 54.7562 63.0969 54.7562C63.2193 54.7562 63.3413 54.7622 63.4632 54.7742C63.5849 54.7862 63.7059 54.804 63.8259 54.8279C63.946 54.8517 64.0646 54.8814 64.1817 54.9169C64.2988 54.9523 64.4139 54.9935 64.527 55.0403C64.64 55.087 64.7505 55.1392 64.8584 55.1968C64.9664 55.2545 65.0713 55.3172 65.173 55.3851C65.2748 55.453 65.3729 55.5257 65.4675 55.6032C65.5621 55.6808 65.6527 55.7628 65.7393 55.8492C65.8258 55.9356 65.9079 56.026 65.9856 56.1204C66.0632 56.2149 66.136 56.313 66.204 56.4147C66.272 56.5162 66.3348 56.6209 66.3925 56.7287C66.4503 56.8365 66.5025 56.9468 66.5493 57.0597C66.5962 57.1726 66.6374 57.2876 66.6729 57.4045C66.7084 57.5215 66.7381 57.6399 66.762 57.7598C66.7858 57.8797 66.8037 58.0004 66.8158 58.122C66.8278 58.2436 66.8338 58.3656 66.8338 58.4877ZM98.1993 58.4877C98.1993 58.6099 98.1933 58.7318 98.1813 58.8535C98.1694 58.9751 98.1515 59.0958 98.1276 59.2157C98.1037 59.3356 98.074 59.454 98.0385 59.571C98.0029 59.6879 97.9617 59.8029 97.9149 59.9158C97.8681 60.0287 97.8158 60.139 97.7581 60.2467C97.7004 60.3546 97.6375 60.4593 97.5696 60.5608C97.5016 60.6625 97.4287 60.7605 97.3511 60.8549C97.2734 60.9494 97.1913 61.0399 97.1048 61.1263C97.0183 61.2127 96.9277 61.2947 96.8332 61.3723C96.7385 61.4498 96.6403 61.5225 96.5385 61.5904C96.4368 61.6583 96.332 61.721 96.224 61.7786C96.1161 61.8363 96.0056 61.8884 95.8925 61.9352C95.7795 61.982 95.6644 62.0231 95.5472 62.0586C95.4301 62.0941 95.3115 62.1237 95.1915 62.1476C95.0714 62.1714 94.9505 62.1892 94.8287 62.2012C94.707 62.2132 94.5849 62.2192 94.4624 62.2192C94.3401 62.2192 94.218 62.2132 94.0962 62.2012C93.9744 62.1892 93.8535 62.1714 93.7334 62.1476C93.6134 62.1237 93.4948 62.0941 93.3776 62.0586C93.2605 62.0231 93.1454 61.982 93.0324 61.9352C92.9193 61.8884 92.8088 61.8363 92.7009 61.7786C92.5929 61.721 92.4881 61.6583 92.3864 61.5904C92.2846 61.5225 92.1864 61.4498 92.0918 61.3723C91.9972 61.2947 91.9066 61.2127 91.8201 61.1263C91.7336 61.0399 91.6515 60.9494 91.5738 60.8549C91.4962 60.7605 91.4233 60.6625 91.3553 60.5608C91.2873 60.4593 91.2245 60.3546 91.1668 60.2467C91.1091 60.139 91.0568 60.0287 91.01 59.9158C90.9632 59.8029 90.922 59.6879 90.8864 59.571C90.8509 59.454 90.8212 59.3356 90.7973 59.2157C90.7735 59.0958 90.7556 58.9751 90.7436 58.8535C90.7316 58.7318 90.7256 58.6099 90.7256 58.4877C90.7256 58.3656 90.7316 58.2436 90.7436 58.122C90.7556 58.0004 90.7735 57.8797 90.7973 57.7598C90.8212 57.6399 90.8509 57.5215 90.8864 57.4045C90.922 57.2876 90.9632 57.1726 91.01 57.0597C91.0568 56.9468 91.1091 56.8365 91.1668 56.7287C91.2245 56.6209 91.2873 56.5162 91.3553 56.4147C91.4233 56.313 91.4962 56.2149 91.5738 56.1204C91.6515 56.026 91.7336 55.9356 91.8201 55.8492C91.9066 55.7628 91.9972 55.6808 92.0918 55.6032C92.1864 55.5257 92.2846 55.453 92.3864 55.3851C92.4881 55.3172 92.5929 55.2545 92.7009 55.1968C92.8088 55.1392 92.9193 55.087 93.0324 55.0403C93.1454 54.9935 93.2605 54.9523 93.3776 54.9169C93.4948 54.8814 93.6134 54.8517 93.7334 54.8279C93.8535 54.804 93.9744 54.7862 94.0962 54.7742C94.218 54.7622 94.3401 54.7562 94.4624 54.7562C94.5849 54.7562 94.707 54.7622 94.8287 54.7742C94.9505 54.7862 95.0714 54.804 95.1915 54.8279C95.3115 54.8517 95.4301 54.8814 95.5472 54.9169C95.6644 54.9523 95.7795 54.9935 95.8925 55.0403C96.0056 55.087 96.1161 55.1392 96.224 55.1968C96.332 55.2545 96.4368 55.3172 96.5385 55.3851C96.6403 55.453 96.7385 55.5257 96.8332 55.6032C96.9277 55.6808 97.0183 55.7628 97.1048 55.8492C97.1913 55.9356 97.2734 56.026 97.3511 56.1204C97.4287 56.2149 97.5016 56.313 97.5696 56.4147C97.6375 56.5162 97.7004 56.6209 97.7581 56.7287C97.8158 56.8365 97.8681 56.9468 97.9149 57.0597C97.9617 57.1726 98.0029 57.2876 98.0385 57.4045C98.074 57.5215 98.1037 57.6399 98.1276 57.7598C98.1515 57.8797 98.1694 58.0004 98.1813 58.122C98.1933 58.2436 98.1993 58.3656 98.1993 58.4877ZM83.1854 70.1018C82.8227 69.4465 82.1436 69.0278 81.3944 68.9978C80.1451 68.9978 78.9621 70.2895 78.3208 71.6584C77.6907 70.2895 76.4966 68.9757 75.2584 68.9978C74.509 69.0367 73.8305 69.4523 73.4563 70.1018C72.7155 71.5259 73.9869 73.8333 75.8112 74.5178C76.0409 74.6069 76.2775 74.677 76.5187 74.7275C76.5187 78.0395 76.5187 81.4398 76.5961 84.7849C76.6735 88.13 76.8394 91.8063 77.0494 95.2839H75.8775L68.9455 95.1404C68.6278 90.0651 68.6759 84.9736 69.0892 79.9053C69.852 70.8856 71.2009 68.8653 72.5497 67.9269C74.1638 66.8229 76.2976 66.8229 78.542 66.8229C80.7863 66.8229 83.8046 66.8229 85.7725 68.3133C87.2872 69.4725 87.9837 71.6253 88.5254 81.6496C88.7576 86.187 88.8571 90.7907 88.8571 95.3612H80.3772C80.1561 91.8284 80.0013 88.2515 79.9129 84.7187C79.8245 81.4067 79.8134 78.0947 79.8355 74.7827C80.1793 74.7363 80.5169 74.651 80.8416 74.5288C82.6658 73.8333 83.9262 71.5259 83.1854 70.1018ZM114.341 121.073C102.884 124.281 91.0259 125.835 79.1279 125.688C67.3177 125.55 55.5875 123.732 44.2908 120.289C44.0842 111.711 46.3896 103.258 50.9244 95.9684C56.3086 98.2758 64.0477 98.4082 75.8775 98.607C79.1943 98.6622 82.3673 98.7063 85.3082 98.7063C87.1324 98.7063 88.8682 98.7063 90.5265 98.6401H90.6924C97.6244 98.4193 103.263 97.6575 107.674 95.5158C112.682 103.057 115.028 112.051 114.341 121.073ZM61.9802 107.538C60.6491 107.194 59.3934 106.606 58.2765 105.805C56.4191 109.945 56.9719 114.471 59.0173 116.425C60.1031 117.545 61.7778 117.859 63.1964 117.209C65.4739 116.105 66.9222 112.153 66.0156 107.836C64.6635 107.984 63.2959 107.883 61.9802 107.538ZM94.9931 108.311C93.6732 108.653 92.3017 108.75 90.9467 108.598C90.0511 112.926 91.4884 116.856 93.777 117.982C95.1935 118.62 96.8579 118.307 97.945 117.198C99.9904 115.233 100.554 110.707 98.6858 106.567C97.5729 107.37 96.321 107.962 94.9931 108.311Z" fill="white" stroke="#F0F0F0" stroke-width="4" mask="url(#path-2-inside-1_5_4)"/>
</svg>
